<svg xmlns="http://www.w3.org/2000/svg" id="erd-canvas" width="200px" height="200px" ><rect x="112px" y="0px" width="28px" height="28px"       stroke="#000" stroke-width="1px" fill="#fff"/><text x="116px" y="20px" stroke="#000" >1</text></svg><rect x="140px" y="0px" width="28px" height="28px"       stroke="#000" stroke-width="1px" fill="#fff"/><text x="144px" y="20px" stroke="#000" >2</text></svg><rect x="168px" y="0px" width="28px" height="28px"       stroke="#000" stroke-width="1px" fill="#eef"/><text x="172px" y="20px" stroke="#00f" >3</text></svg><rect x="0px" y="28px" width="28px" height="28px"       stroke="#000" stroke-width="1px" fill="#fee"/><text x="4px" y="48px" stroke="#f00" >4</text></svg><rect x="28px" y="28px" width="28px" height="28px"       stroke="#000" stroke-width="1px" fill="#fff"/><text x="32px" y="48px" stroke="#000" >5</text></svg><rect x="56px" y="28px" width="28px" height="28px"       stroke="#000" stroke-width="1px" fill="#fff"/><text x="60px" y="48px" stroke="#000" >6</text></svg><rect x="84px" y="28px" width="28px" height="28px"       stroke="#000" stroke-width="1px" fill="#fff"/><text x="88px" y="48px" stroke="#000" >7</text></svg><rect x="112px" y="28px" width="28px" height="28px"       stroke="#000" stroke-width="1px" fill="#fff"/><text x="116px" y="48px" stroke="#000" >8</text></svg><rect x="140px" y="28px" width="28px" height="28px"       stroke="#000" stroke-width="1px" fill="#fff"/><text x="144px" y="48px" stroke="#000" >9</text></svg><rect x="168px" y="28px" width="28px" height="28px"       stroke="#000" stroke-width="1px" fill="#eef"/><text x="172px" y="48px" stroke="#00f" >10</text></svg><rect x="0px" y="56px" width="28px" height="28px"       stroke="#000" stroke-width="1px" fill="#fee"/><text x="4px" y="76px" stroke="#f00" >11</text></svg><rect x="28px" y="56px" width="28px" height="28px"       stroke="#000" stroke-width="1px" fill="#fff"/><text x="32px" y="76px" stroke="#000" >12</text></svg><rect x="56px" y="56px" width="28px" height="28px"       stroke="#000" stroke-width="1px" fill="#fff"/><text x="60px" y="76px" stroke="#000" >13</text></svg><rect x="84px" y="56px" width="28px" height="28px"       stroke="#000" stroke-width="1px" fill="#fff"/><text x="88px" y="76px" stroke="#000" >14</text></svg><rect x="112px" y="56px" width="28px" height="28px"       stroke="#000" stroke-width="1px" fill="#fff"/><text x="116px" y="76px" stroke="#000" >15</text></svg><rect x="140px" y="56px" width="28px" height="28px"       stroke="#000" stroke-width="1px" fill="#fff"/><text x="144px" y="76px" stroke="#000" >16</text></svg><rect x="168px" y="56px" width="28px" height="28px"       stroke="#000" stroke-width="1px" fill="#eef"/><text x="172px" y="76px" stroke="#00f" >17</text></svg><rect x="0px" y="84px" width="28px" height="28px"       stroke="#000" stroke-width="1px" fill="#fee"/><text x="4px" y="104px" stroke="#f00" >18</text></svg><rect x="28px" y="84px" width="28px" height="28px"       stroke="#000" stroke-width="1px" fill="#fff"/><text x="32px" y="104px" stroke="#000" >19</text></svg><rect x="56px" y="84px" width="28px" height="28px"       stroke="#000" stroke-width="1px" fill="#fff"/><text x="60px" y="104px" stroke="#000" >20</text></svg><rect x="84px" y="84px" width="28px" height="28px"       stroke="#000" stroke-width="1px" fill="#fff"/><text x="88px" y="104px" stroke="#000" >21</text></svg><rect x="112px" y="84px" width="28px" height="28px"       stroke="#000" stroke-width="1px" fill="#fff"/><text x="116px" y="104px" stroke="#000" >22</text></svg><rect x="140px" y="84px" width="28px" height="28px"       stroke="#000" stroke-width="1px" fill="#fff"/><text x="144px" y="104px" stroke="#000" >23</text></svg><rect x="168px" y="84px" width="28px" height="28px"       stroke="#000" stroke-width="1px" fill="#eef"/><text x="172px" y="104px" stroke="#00f" >24</text></svg><rect x="0px" y="112px" width="28px" height="28px"       stroke="#000" stroke-width="1px" fill="#fee"/><text x="4px" y="132px" stroke="#f00" >25</text></svg><rect x="28px" y="112px" width="28px" height="28px"       stroke="#000" stroke-width="1px" fill="#fff"/><text x="32px" y="132px" stroke="#000" >26</text></svg><rect x="56px" y="112px" width="28px" height="28px"       stroke="#000" stroke-width="1px" fill="#fff"/><text x="60px" y="132px" stroke="#000" >27</text></svg>