<svg xmlns="http://www.w3.org/2000/svg" id="erd-canvas" width="196px" height="168px" ><rect x="112px" y="0px" width="26px" height="26px"       stroke="#000" stroke-width="1px" fill="#fff"/><text x="125px" y="20px" stroke="#000" text-anchor="middle">1</text><rect x="140px" y="0px" width="26px" height="26px"       stroke="#000" stroke-width="1px" fill="#fff"/><text x="153px" y="20px" stroke="#000" text-anchor="middle">2</text><rect x="168px" y="0px" width="26px" height="26px"       stroke="#000" stroke-width="1px" fill="#eef"/><text x="181px" y="20px" stroke="#00f" text-anchor="middle">3</text><rect x="0px" y="28px" width="26px" height="26px"       stroke="#000" stroke-width="1px" fill="#fee"/><text x="13px" y="48px" stroke="#f00" text-anchor="middle">4</text><rect x="28px" y="28px" width="26px" height="26px"       stroke="#000" stroke-width="1px" fill="#fff"/><text x="41px" y="48px" stroke="#000" text-anchor="middle">5</text><rect x="56px" y="28px" width="26px" height="26px"       stroke="#000" stroke-width="1px" fill="#fff"/><text x="69px" y="48px" stroke="#000" text-anchor="middle">6</text><rect x="84px" y="28px" width="26px" height="26px"       stroke="#000" stroke-width="1px" fill="#fff"/><text x="97px" y="48px" stroke="#000" text-anchor="middle">7</text><rect x="112px" y="28px" width="26px" height="26px"       stroke="#000" stroke-width="1px" fill="#fff"/><text x="125px" y="48px" stroke="#000" text-anchor="middle">8</text><rect x="140px" y="28px" width="26px" height="26px"       stroke="#000" stroke-width="1px" fill="#fff"/><text x="153px" y="48px" stroke="#000" text-anchor="middle">9</text><rect x="168px" y="28px" width="26px" height="26px"       stroke="#000" stroke-width="1px" fill="#eef"/><text x="181px" y="48px" stroke="#00f" text-anchor="middle">10</text><rect x="0px" y="56px" width="26px" height="26px"       stroke="#000" stroke-width="1px" fill="#fee"/><text x="13px" y="76px" stroke="#f00" text-anchor="middle">11</text><rect x="28px" y="56px" width="26px" height="26px"       stroke="#000" stroke-width="1px" fill="#fff"/><text x="41px" y="76px" stroke="#000" text-anchor="middle">12</text><rect x="56px" y="56px" width="26px" height="26px"       stroke="#000" stroke-width="1px" fill="#fff"/><text x="69px" y="76px" stroke="#000" text-anchor="middle">13</text><rect x="84px" y="56px" width="26px" height="26px"       stroke="#000" stroke-width="1px" fill="#fff"/><text x="97px" y="76px" stroke="#000" text-anchor="middle">14</text><rect x="112px" y="56px" width="26px" height="26px"       stroke="#000" stroke-width="1px" fill="#fff"/><text x="125px" y="76px" stroke="#000" text-anchor="middle">15</text><rect x="140px" y="56px" width="26px" height="26px"       stroke="#000" stroke-width="1px" fill="#fff"/><text x="153px" y="76px" stroke="#000" text-anchor="middle">16</text><rect x="168px" y="56px" width="26px" height="26px"       stroke="#000" stroke-width="1px" fill="#eef"/><text x="181px" y="76px" stroke="#00f" text-anchor="middle">17</text><rect x="0px" y="84px" width="26px" height="26px"       stroke="#000" stroke-width="1px" fill="#fee"/><text x="13px" y="104px" stroke="#f00" text-anchor="middle">18</text><rect x="28px" y="84px" width="26px" height="26px"       stroke="#000" stroke-width="1px" fill="#fff"/><text x="41px" y="104px" stroke="#000" text-anchor="middle">19</text><rect x="56px" y="84px" width="26px" height="26px"       stroke="#000" stroke-width="1px" fill="#fff"/><text x="69px" y="104px" stroke="#000" text-anchor="middle">20</text><rect x="84px" y="84px" width="26px" height="26px"       stroke="#000" stroke-width="1px" fill="#fff"/><text x="97px" y="104px" stroke="#000" text-anchor="middle">21</text><rect x="112px" y="84px" width="26px" height="26px"       stroke="#000" stroke-width="1px" fill="#fff"/><text x="125px" y="104px" stroke="#000" text-anchor="middle">22</text><rect x="140px" y="84px" width="26px" height="26px"       stroke="#000" stroke-width="1px" fill="#fff"/><text x="153px" y="104px" stroke="#000" text-anchor="middle">23</text><rect x="168px" y="84px" width="26px" height="26px"       stroke="#000" stroke-width="1px" fill="#eef"/><text x="181px" y="104px" stroke="#00f" text-anchor="middle">24</text><rect x="0px" y="112px" width="26px" height="26px"       stroke="#000" stroke-width="1px" fill="#fee"/><text x="13px" y="132px" stroke="#f00" text-anchor="middle">25</text><rect x="28px" y="112px" width="26px" height="26px"       stroke="#000" stroke-width="1px" fill="#fff"/><text x="41px" y="132px" stroke="#000" text-anchor="middle">26</text><rect x="56px" y="112px" width="26px" height="26px"       stroke="#000" stroke-width="1px" fill="#fff"/><text x="69px" y="132px" stroke="#000" text-anchor="middle">27</text></svg>